<?xml version="1.0" encoding="UTF-8" standalone="no"?>
<!-- Created with Inkscape (http://www.inkscape.org/) -->

<svg
   xmlns:dc="http://purl.org/dc/elements/1.1/"
   xmlns:cc="http://creativecommons.org/ns#"
   xmlns:rdf="http://www.w3.org/1999/02/22-rdf-syntax-ns#"
   xmlns:svg="http://www.w3.org/2000/svg"
   xmlns="http://www.w3.org/2000/svg"
   xmlns:sodipodi="http://sodipodi.sourceforge.net/DTD/sodipodi-0.dtd"
   xmlns:inkscape="http://www.inkscape.org/namespaces/inkscape"
   id="svg2"
   version="1.1"
   inkscape:version="0.48.4 r9939"
   width="1073.8"
   height="175.45"
   xml:space="preserve"
   sodipodi:docname="logo.eps"><metadata
     id="metadata8"><rdf:RDF><cc:Work
         rdf:about=""><dc:format>image/svg+xml</dc:format><dc:type
           rdf:resource="http://purl.org/dc/dcmitype/StillImage" /><dc:title></dc:title></cc:Work></rdf:RDF></metadata><defs
     id="defs6" /><sodipodi:namedview
     pagecolor="#ffffff"
     bordercolor="#666666"
     borderopacity="1"
     objecttolerance="10"
     gridtolerance="10"
     guidetolerance="10"
     inkscape:pageopacity="0"
     inkscape:pageshadow="2"
     inkscape:window-width="873"
     inkscape:window-height="629"
     id="namedview4"
     showgrid="false"
     inkscape:zoom="0.33618922"
     inkscape:cx="536.90002"
     inkscape:cy="87.724998"
     inkscape:window-x="45"
     inkscape:window-y="24"
     inkscape:window-maximized="0"
     inkscape:current-layer="g10" /><g
     id="g10"
     inkscape:groupmode="layer"
     inkscape:label="ink_ext_XXXXXX"
     transform="matrix(1.25,0,0,-1.25,0,175.45)"><g
       id="g12"
       transform="scale(0.1,0.1)"><path
         d="m 2859,272.949 c 20.66,202.055 33.05,424.492 37.18,667.313 l -265.43,-6.867 3.12,69.235 c 1.66,37 2.9,77.53 3.74,121.6 118.03,-0.84 255.61,-1.25 412.73,-1.25 l 154,0.62 149.63,0 81.05,0.63 -3.74,-61.08 c -1.65,-32.76 -2.79,-59.84 -3.42,-81.259 -0.62,-21.426 -0.94,-37.578 -0.94,-48.496 -88.89,4.57 -162.21,6.867 -219.95,6.867 l -43.62,0 c -6.27,-73.457 -11.08,-141.309 -14.43,-203.555 -4.61,-89.227 -8.17,-175.863 -10.68,-259.891 -2.52,-84.035 -3.76,-151.988 -3.76,-203.867 -68.14,0.821 -112.19,1.25 -132.13,1.25 -17.87,0 -65.65,-0.429 -143.35,-1.25"
         style="fill:#5481ca;fill-opacity:1;fill-rule:nonzero;stroke:none"
         id="path14"
         inkscape:connector-curvature="0" /><path
         d="m 3478.93,272.949 c 7.92,73.172 14.17,139.067 18.76,197.696 4.58,58.617 8.54,126.601 11.88,203.925 3.33,77.34 5.83,158.934 7.5,244.793 1.67,85.847 2.51,154.137 2.51,204.867 51.95,-1.25 93.95,-1.86 125.96,-1.86 33.24,0 73.78,0.93 121.59,2.8 47.8,1.88 94.36,2.81 139.68,2.81 53.2,0 100.6,-2.09 142.17,-6.23 31.18,-2.93 59.55,-8.95 85.11,-18.09 25.57,-9.15 47.08,-20.27 64.54,-33.37 17.46,-13.09 32.01,-27.75 43.65,-43.97 11.64,-16.21 20.68,-35.23 27.12,-57.066 6.45,-21.824 9.67,-45.215 9.67,-70.156 0,-27.86 -3.53,-53.946 -10.6,-78.27 -7.07,-24.316 -18.2,-47.187 -33.36,-68.605 -15.19,-21.414 -34.31,-39.91 -57.39,-55.5 -23.07,-15.586 -55.4,-31.504 -96.97,-47.715 l 32.43,-79.199 c 9.14,-22.051 18.91,-44.496 29.31,-67.368 l 83.57,-182.711 c 3.74,-7.91 10.39,-23.5 19.96,-46.781 -68.57,0.821 -114.67,1.25 -138.35,1.25 -29.93,0 -78.96,-0.429 -147.09,-1.25 -6.66,21.602 -18.73,61.742 -36.21,120.352 -7.08,24.535 -13.12,43.461 -18.11,56.758 -10,29.511 -24.77,70.879 -44.34,124.125 l -64.3,176.488 c 22.45,-4.16 44.48,-6.242 66.11,-6.242 30.34,0 57.89,4.57 82.62,13.722 24.73,9.141 43.44,23.282 56.13,42.411 12.68,19.113 19.02,39.289 19.02,60.488 0,17.871 -4.78,33.574 -14.34,47.09 -9.57,13.507 -24.64,23.593 -45.22,30.246 -20.57,6.648 -52.28,9.98 -95.1,9.98 -14.56,0 -29.63,-0.312 -45.22,-0.937 -15.59,-0.625 -33.79,-1.153 -54.57,-1.555 -5.33,-85.242 -10.05,-189.187 -14.15,-311.828 -4.1,-122.656 -6.76,-243.027 -7.99,-361.098 -69.52,0.821 -114.69,1.25 -135.49,1.25 -24.15,0 -67.64,-0.429 -130.49,-1.25"
         style="fill:#5481ca;fill-opacity:1;fill-rule:nonzero;stroke:none"
         id="path16"
         inkscape:connector-curvature="0" /><path
         d="m 5056.78,382.09 c -5.83,-30.141 -11.03,-62.77 -15.6,-97.91 -81.91,-16.641 -156.95,-24.961 -225.14,-24.961 -60.71,0 -119.33,9.261 -175.86,27.75 -56.56,18.5 -105.72,47.09 -147.5,85.769 -41.78,38.653 -72.25,84.176 -91.37,136.578 -19.12,52.383 -28.68,108.52 -28.68,168.379 0,64.032 10.59,125.77 31.8,185.231 21.2,59.453 53.32,109.863 96.36,151.234 43.03,41.36 95,72.35 155.91,92.93 60.91,20.57 124.63,30.87 191.15,30.87 71.51,0 142.81,-7.48 213.92,-22.46 0.41,-21.06 2.69,-53.29 6.85,-96.66 -46.15,14.12 -85.44,23.59 -117.87,28.37 -32.43,4.78 -63.2,7.18 -92.29,7.18 -49.49,0 -96.89,-7.6 -142.2,-22.76 -45.32,-15.19 -85.44,-39.407 -120.36,-72.657 -34.93,-33.274 -61.65,-74.121 -80.15,-122.551 -18.5,-48.445 -27.75,-98.848 -27.75,-151.242 0,-48.633 7.38,-94.789 22.14,-138.442 14.75,-43.672 37.42,-80.562 67.98,-110.703 30.56,-30.152 66.83,-53.226 108.82,-69.234 42,-16 89.19,-24.012 141.58,-24.012 66.11,0 142.19,13.109 228.26,39.301"
         style="fill:#39475a;fill-opacity:1;fill-rule:nonzero;stroke:none"
         id="path18"
         inkscape:connector-curvature="0" /><path
         d="m 5197.1,272.949 c 9.53,107.27 17.7,238.321 24.55,393.203 6.84,154.879 11.08,307.567 12.74,458.078 28.73,-0.41 50.57,-0.62 65.55,-0.62 l 58.07,0.62 -19.93,-395.074 -14.95,-372.625 118.48,-0.633 c 88.14,0 150.18,0.313 186.13,0.922 35.96,0.621 70.79,1.969 104.46,4.059 -2.49,-26.367 -4.58,-55.68 -6.24,-87.93 -94.39,0.84 -177.74,1.25 -250.08,1.25 l -278.78,-1.25"
         style="fill:#39475a;fill-opacity:1;fill-rule:nonzero;stroke:none"
         id="path20"
         inkscape:connector-curvature="0" /><path
         d="m 6276.03,1054.39 c -49.9,0 -97.09,-8.01 -141.58,-23.99 -44.49,-16.01 -83.26,-41.654 -116.31,-76.955 -33.05,-35.312 -57.59,-76.855 -73.59,-124.629 -16.01,-47.765 -24.01,-97.617 -24.01,-149.539 0,-48.203 7.89,-94.414 23.7,-138.648 15.79,-44.238 39.07,-81.113 69.85,-110.609 30.76,-29.489 67.77,-51.399 111.01,-65.719 43.24,-14.34 88.35,-21.512 135.33,-21.512 48.23,0 94.27,7.68 138.14,23.07 43.86,15.352 81.7,39.77 113.51,73.204 31.81,33.441 55.39,73.828 70.78,121.195 15.38,47.359 23.08,96.988 23.08,148.926 0,49.015 -6.97,95.851 -20.89,140.511 -13.94,44.649 -36.17,82.774 -66.74,114.344 -30.56,31.574 -66.84,54.521 -108.83,68.851 -41.99,14.32 -86.48,21.5 -133.45,21.5 z m 6.85,83.57 c 61.53,0 119.95,-8.95 175.25,-26.82 55.29,-17.88 104.05,-47.39 146.25,-88.55 42.19,-41.168 72.23,-87.32 90.11,-138.461 17.88,-51.145 26.83,-106.641 26.83,-166.516 0,-64.039 -9.98,-125.558 -29.94,-184.601 -19.95,-59.043 -50.74,-109.145 -92.3,-150.293 -41.58,-41.18 -92.72,-72.028 -153.43,-92.617 -60.7,-20.59 -124.52,-30.883 -191.45,-30.883 -63.61,0 -124.64,9.359 -183.05,28.07 -58.42,18.711 -108.2,47.5 -149.36,86.383 -41.16,38.867 -70.89,84.594 -89.18,137.211 -18.3,52.578 -27.44,108.394 -27.44,167.437 0,64.86 11,127.125 33.04,186.785 22.04,59.657 54.57,110.079 97.61,151.235 43.03,41.17 95,71.72 155.91,91.68 60.91,19.96 124.63,29.94 191.15,29.94"
         style="fill:#39475a;fill-opacity:1;fill-rule:nonzero;stroke:none"
         id="path22"
         inkscape:connector-curvature="0" /><path
         d="m 6887.65,1124.23 61.83,-0.62 60.59,0.62 -28.1,-475.847 -1.87,-57.992 0,-11.856 c 0,-57.793 8.51,-102.597 25.57,-134.394 17.04,-31.817 44.17,-56.442 81.39,-73.903 37.22,-17.457 84.3,-26.199 141.27,-26.199 38.25,0 73.59,4.992 106.03,14.973 27.02,8.726 49.99,20.367 68.91,34.918 18.93,14.547 34.62,32.437 47.1,53.629 11.63,20.375 19.95,43.457 24.94,69.242 5.82,32.422 11.01,88.965 15.55,169.629 l 11.13,200.812 c 3.29,74.004 5.57,153.008 6.82,236.988 l 64.33,-0.62 58.09,0.62 -18.18,-293.734 -11.29,-243.23 c -3.74,-56.543 -9.78,-100.411 -18.09,-131.582 -6.23,-22.047 -15.37,-42.832 -27.43,-62.383 -10.81,-17.461 -24.11,-33.039 -39.9,-46.762 -18.71,-16.641 -41.37,-31.398 -67.97,-44.269 -28.27,-13.321 -58.19,-23.301 -89.79,-29.942 -45.31,-8.726 -92.28,-13.109 -140.91,-13.109 -47.4,0 -91.66,4.793 -132.82,14.359 -35.75,8.301 -68.59,20.973 -98.51,38.024 -29.93,17.046 -53.83,36.386 -71.7,58.007 -14.97,17.461 -26.82,39.493 -35.54,66.114 -9.98,29.922 -14.97,62.992 -14.97,99.164 0,38.672 1.54,82.949 4.64,132.832 3.1,49.894 7.01,125.14 11.76,225.765 4.73,100.614 7.12,177.526 7.12,230.746"
         style="fill:#39475a;fill-opacity:1;fill-rule:nonzero;stroke:none"
         id="path24"
         inkscape:connector-curvature="0" /><path
         d="m 7904.37,356.531 c 50.67,-1.25 97.8,-1.883 141.42,-1.883 36.54,0 73.82,1.762 111.82,5.293 38.01,3.539 72.06,10.079 102.18,19.649 30.1,9.551 59.68,26.719 88.76,51.445 29.09,24.746 52.86,52.793 71.34,84.199 18.48,31.387 32.29,66.528 41.43,105.395 9.14,38.887 13.71,78.277 13.71,118.187 0,44.903 -5.83,86.473 -17.46,124.735 -11.64,38.242 -31.5,72.754 -59.56,103.527 -28.07,30.762 -61.33,51.242 -99.79,61.422 -38.45,10.19 -89.28,15.29 -152.48,15.29 -77.75,0 -148.85,-0.63 -213.29,-1.88 l -28.08,-685.379 z m -120.35,-83.582 17.54,256.938 18.79,504.543 c 0.4,20.37 0.62,50.3 0.62,89.8 52.37,-0.84 97.06,-1.25 134.06,-1.25 23.27,0 59.23,0.41 107.86,1.25 48.63,0.84 83.15,1.25 103.52,1.25 69.42,0 127.61,-5.41 174.59,-16.21 35.74,-7.91 68.48,-21.83 98.2,-41.78 29.72,-19.96 56.22,-46.06 79.49,-78.275 23.28,-32.227 40.54,-67.664 51.76,-106.336 13.3,-46.563 19.96,-95.215 19.96,-145.93 0,-69.445 -12.28,-136.066 -36.8,-199.879 -24.54,-63.828 -61.02,-117.05 -109.45,-159.672 -48.44,-42.609 -102.7,-70.679 -162.77,-84.179 -60.09,-13.508 -127.13,-20.27 -201.14,-20.27 l -173.99,1.25 c -11.23,0 -51.98,-0.429 -122.24,-1.25"
         style="fill:#39475a;fill-opacity:1;fill-rule:nonzero;stroke:none"
         id="path26"
         inkscape:connector-curvature="0" /><path
         d="m 324.668,224.219 c 0,295.176 178.777,447.211 411.387,482.89 0,0 0,330.981 393.405,375.551 0,0 241.56,53.7 411.39,-160.875 107.95,76.27 324.04,66.61 440.26,-67.101 -62.26,254.476 -371.04,295.096 -507.29,198.766 -169.97,214.68 -411.49,161.02 -411.49,161.02 C 669.031,1169.7 669.031,838.922 669.031,838.922 436.387,803.043 257.617,651.059 257.617,356.059 c 0,-95.368 31.653,-161.547 74.531,-207.7 -4.843,22.95 -7.48,48.172 -7.48,75.86"
         style="fill:#ffffff;fill-opacity:1;fill-rule:nonzero;stroke:none"
         id="path28"
         inkscape:connector-curvature="0" /><path
         d="m 480.676,948.758 c 0,0 0,394.452 459.695,447.782 0,0 282.119,63.86 480.489,-191.98 177.64,127.98 606.03,53.34 606.03,-351.74 292.49,-85.215 406.62,-383.425 240.17,-660.922 C 2152.2,0 1911.95,0 1786.61,0 1661.2,0 355.145,0 355.145,0 355.145,0 0,21.4102 0,373.051 0,724.996 209.004,906.043 480.676,948.758"
         style="fill:#5481ca;fill-opacity:1;fill-rule:nonzero;stroke:none"
         id="path30"
         inkscape:connector-curvature="0" /><path
         d="m 209.441,216.211 c 0,322.68 191.528,488.848 440.735,527.859 0,0 0,361.8 421.444,410.57 0,0 258.78,58.67 440.72,-175.913 115.61,83.403 347.16,72.853 471.64,-73.329 -66.66,278.182 -397.48,322.582 -543.43,217.312 -182.11,234.66 -440.87,175.95 -440.87,175.95 C 578.352,1249.74 578.352,888.172 578.352,888.172 329.102,848.934 137.578,682.813 137.578,360.309 c 0,-104.27 33.953,-176.579 79.856,-227.071 -5.215,25.141 -7.993,52.684 -7.993,82.973"
         style="fill:#ffffff;fill-opacity:1;fill-rule:nonzero;stroke:none"
         id="path32"
         inkscape:connector-curvature="0" /></g></g></svg>